<mxfile host="app.diagrams.net" modified="2023-04-28T23:27:01.286Z" agent="Mozilla/5.0 (Macintosh; Intel Mac OS X 10_15_7) AppleWebKit/537.36 (KHTML, like Gecko) Chrome/112.0.0.0 Safari/537.36" etag="WnjMY4sYJ79swDyzoGxJ" version="21.2.3" type="github">
  <diagram id="3228e29e-7158-1315-38df-8450db1d8a1d" name="Page-1">
    <mxGraphModel dx="1020" dy="1002" grid="0" gridSize="10" guides="1" tooltips="1" connect="1" arrows="1" fold="1" page="1" pageScale="1" pageWidth="750" pageHeight="280" background="#EFF1F3" math="0" shadow="0">
      <root>
        <mxCell id="0" />
        <mxCell id="1" parent="0" />
        <mxCell id="LvesvwtV2vatUiFBe1HR-21535" value="" style="shape=flexArrow;endArrow=classic;startArrow=classic;html=1;rounded=0;fillColor=#FDD276;strokeColor=none;" parent="1" edge="1">
          <mxGeometry width="100" height="100" relative="1" as="geometry">
            <mxPoint x="220.5" y="367.32" as="sourcePoint" />
            <mxPoint x="526.5" y="366.68" as="targetPoint" />
          </mxGeometry>
        </mxCell>
        <mxCell id="LvesvwtV2vatUiFBe1HR-21536" value="&lt;font style=&quot;font-size: 20px;&quot; color=&quot;#4a919b&quot;&gt;UDP&lt;/font&gt;" style="text;html=1;strokeColor=none;fillColor=none;align=center;verticalAlign=middle;whiteSpace=wrap;rounded=0;" parent="1" vertex="1">
          <mxGeometry x="317.25" y="332" width="116.5" height="30" as="geometry" />
        </mxCell>
        <mxCell id="LvesvwtV2vatUiFBe1HR-21537" value="" style="rounded=1;whiteSpace=wrap;html=1;fontColor=#4A919B;fillColor=#E6D7C2;strokeColor=default;dashed=1;" parent="1" vertex="1">
          <mxGeometry x="362.5" y="392" width="31" height="106" as="geometry" />
        </mxCell>
        <mxCell id="mEsMMcqfVsm2u6kgBKq4-1" value="" style="rounded=1;whiteSpace=wrap;html=1;strokeColor=none;fillColor=#E6D7C2;" parent="1" vertex="1">
          <mxGeometry x="78.5" y="436" width="120" height="60" as="geometry" />
        </mxCell>
        <mxCell id="mEsMMcqfVsm2u6kgBKq4-7" value="&lt;font style=&quot;font-size: 18px;&quot; color=&quot;#595959&quot;&gt;6&lt;/font&gt;" style="rounded=1;whiteSpace=wrap;html=1;fontColor=#4A919B;fillColor=#9AC7BF;strokeColor=none;" parent="1" vertex="1">
          <mxGeometry x="91" y="442" width="23" height="48" as="geometry" />
        </mxCell>
        <mxCell id="mEsMMcqfVsm2u6kgBKq4-8" value="&lt;font style=&quot;font-size: 18px;&quot; color=&quot;#595959&quot;&gt;5&lt;/font&gt;" style="rounded=1;whiteSpace=wrap;html=1;fontColor=#4A919B;fillColor=#9AC7BF;strokeColor=none;" parent="1" vertex="1">
          <mxGeometry x="115" y="442" width="23" height="48" as="geometry" />
        </mxCell>
        <mxCell id="mEsMMcqfVsm2u6kgBKq4-9" value="&lt;font style=&quot;font-size: 18px;&quot; color=&quot;#595959&quot;&gt;4&lt;/font&gt;" style="rounded=1;whiteSpace=wrap;html=1;fontColor=#4A919B;fillColor=#9AC7BF;strokeColor=none;" parent="1" vertex="1">
          <mxGeometry x="139" y="442" width="23" height="48" as="geometry" />
        </mxCell>
        <mxCell id="mEsMMcqfVsm2u6kgBKq4-10" value="&lt;font style=&quot;font-size: 18px;&quot; color=&quot;#595959&quot;&gt;3&lt;/font&gt;" style="rounded=1;whiteSpace=wrap;html=1;fontColor=#4A919B;fillColor=#9AC7BF;strokeColor=none;" parent="1" vertex="1">
          <mxGeometry x="163" y="442" width="23" height="48" as="geometry" />
        </mxCell>
        <mxCell id="mEsMMcqfVsm2u6kgBKq4-11" value="" style="rounded=1;whiteSpace=wrap;html=1;strokeColor=none;fillColor=#E6D7C2;" parent="1" vertex="1">
          <mxGeometry x="554" y="436" width="120" height="60" as="geometry" />
        </mxCell>
        <mxCell id="mEsMMcqfVsm2u6kgBKq4-12" value="&lt;font style=&quot;font-size: 18px;&quot; color=&quot;#595959&quot;&gt;1&lt;/font&gt;" style="rounded=1;whiteSpace=wrap;html=1;fontColor=#4A919B;fillColor=#9AC7BF;strokeColor=none;" parent="1" vertex="1">
          <mxGeometry x="566.5" y="442" width="23" height="48" as="geometry" />
        </mxCell>
        <mxCell id="mEsMMcqfVsm2u6kgBKq4-13" value="&lt;font style=&quot;font-size: 18px;&quot; color=&quot;#595959&quot;&gt;2&lt;/font&gt;" style="rounded=1;whiteSpace=wrap;html=1;fontColor=#4A919B;fillColor=#9AC7BF;strokeColor=none;" parent="1" vertex="1">
          <mxGeometry x="590.5" y="442" width="23" height="48" as="geometry" />
        </mxCell>
        <mxCell id="mEsMMcqfVsm2u6kgBKq4-16" value="&lt;font color=&quot;#4a919b&quot; style=&quot;font-size: 17px;&quot;&gt;接收缓冲区&lt;/font&gt;" style="text;html=1;strokeColor=none;fillColor=none;align=center;verticalAlign=middle;whiteSpace=wrap;rounded=0;" parent="1" vertex="1">
          <mxGeometry x="570.5" y="503" width="87" height="30" as="geometry" />
        </mxCell>
        <mxCell id="mEsMMcqfVsm2u6kgBKq4-17" value="&lt;font color=&quot;#4a919b&quot; style=&quot;font-size: 17px;&quot;&gt;发送缓冲区&lt;/font&gt;" style="text;html=1;strokeColor=none;fillColor=none;align=center;verticalAlign=middle;whiteSpace=wrap;rounded=0;" parent="1" vertex="1">
          <mxGeometry x="95" y="503" width="87" height="30" as="geometry" />
        </mxCell>
        <mxCell id="mEsMMcqfVsm2u6kgBKq4-18" value="&lt;font color=&quot;#4a919b&quot; style=&quot;font-size: 17px;&quot;&gt;窗口大小= 2 -&amp;gt; 0&lt;/font&gt;" style="text;html=1;strokeColor=none;fillColor=none;align=center;verticalAlign=middle;whiteSpace=wrap;rounded=0;" parent="1" vertex="1">
          <mxGeometry x="300.13" y="511" width="155.75" height="30" as="geometry" />
        </mxCell>
        <mxCell id="mEsMMcqfVsm2u6kgBKq4-19" value="&lt;font style=&quot;font-size: 18px;&quot; color=&quot;#595959&quot;&gt;3&lt;/font&gt;" style="rounded=1;whiteSpace=wrap;html=1;fontColor=#4A919B;fillColor=#9AC7BF;strokeColor=none;" parent="1" vertex="1">
          <mxGeometry x="366.5" y="446" width="23" height="48" as="geometry" />
        </mxCell>
        <mxCell id="mEsMMcqfVsm2u6kgBKq4-20" value="&lt;font style=&quot;font-size: 18px;&quot; color=&quot;#595959&quot;&gt;4&lt;/font&gt;" style="rounded=1;whiteSpace=wrap;html=1;fontColor=#4A919B;fillColor=#9AC7BF;strokeColor=none;" parent="1" vertex="1">
          <mxGeometry x="366.5" y="396" width="23" height="48" as="geometry" />
        </mxCell>
        <mxCell id="mEsMMcqfVsm2u6kgBKq4-22" value="&lt;font style=&quot;font-size: 18px;&quot; color=&quot;#595959&quot;&gt;3&lt;/font&gt;" style="rounded=1;whiteSpace=wrap;html=1;fontColor=#4A919B;fillColor=#9AC7BF;strokeColor=default;dashed=1;" parent="1" vertex="1">
          <mxGeometry x="615.5" y="442" width="23" height="48" as="geometry" />
        </mxCell>
        <mxCell id="mEsMMcqfVsm2u6kgBKq4-23" value="&lt;font style=&quot;font-size: 18px;&quot; color=&quot;#595959&quot;&gt;4&lt;/font&gt;" style="rounded=1;whiteSpace=wrap;html=1;fontColor=#4A919B;fillColor=#9AC7BF;strokeColor=default;dashed=1;" parent="1" vertex="1">
          <mxGeometry x="641.5" y="442" width="23" height="48" as="geometry" />
        </mxCell>
        <mxCell id="mEsMMcqfVsm2u6kgBKq4-24" value="" style="curved=1;endArrow=classic;html=1;rounded=0;fontColor=#000000;fillColor=#FDD276;dashed=1;strokeWidth=3;strokeColor=#4A919B;" parent="1" edge="1">
          <mxGeometry width="50" height="50" relative="1" as="geometry">
            <mxPoint x="151.5" y="439" as="sourcePoint" />
            <mxPoint x="349.5" y="416" as="targetPoint" />
            <Array as="points">
              <mxPoint x="165.5" y="429" />
              <mxPoint x="239.5" y="414" />
            </Array>
          </mxGeometry>
        </mxCell>
        <mxCell id="mEsMMcqfVsm2u6kgBKq4-25" value="" style="curved=1;endArrow=classic;html=1;rounded=0;fontColor=#000000;fillColor=#FDD276;dashed=1;strokeWidth=3;strokeColor=#4A919B;" parent="1" edge="1">
          <mxGeometry width="50" height="50" relative="1" as="geometry">
            <mxPoint x="191.5" y="467" as="sourcePoint" />
            <mxPoint x="355.5" y="482" as="targetPoint" />
            <Array as="points">
              <mxPoint x="216.5" y="477" />
              <mxPoint x="279.5" y="488" />
            </Array>
          </mxGeometry>
        </mxCell>
        <mxCell id="mEsMMcqfVsm2u6kgBKq4-26" value="" style="curved=1;endArrow=classic;html=1;rounded=0;fontColor=#000000;fillColor=#FDD276;dashed=1;strokeWidth=3;strokeColor=#4A919B;" parent="1" edge="1">
          <mxGeometry width="50" height="50" relative="1" as="geometry">
            <mxPoint x="401.5" y="418" as="sourcePoint" />
            <mxPoint x="644.5" y="433" as="targetPoint" />
            <Array as="points">
              <mxPoint x="476.5" y="413" />
            </Array>
          </mxGeometry>
        </mxCell>
        <mxCell id="mEsMMcqfVsm2u6kgBKq4-27" value="" style="curved=1;endArrow=classic;html=1;rounded=0;fontColor=#000000;fillColor=#FDD276;dashed=1;strokeWidth=3;strokeColor=#4A919B;" parent="1" edge="1">
          <mxGeometry width="50" height="50" relative="1" as="geometry">
            <mxPoint x="399.5" y="486" as="sourcePoint" />
            <mxPoint x="621.5" y="491" as="targetPoint" />
            <Array as="points">
              <mxPoint x="464.5" y="505" />
              <mxPoint x="560.5" y="509" />
            </Array>
          </mxGeometry>
        </mxCell>
        <mxCell id="ENhLnf7OnKlgd_8MKIwy-1" value="" style="shape=image;verticalLabelPosition=bottom;verticalAlign=top;imageAspect=0;aspect=fixed;image=data:image/svg+xml,PHN2ZyB4bWxuczp4bGluaz0iaHR0cDovL3d3dy53My5vcmcvMTk5OS94bGluayIgeG1sbnM9Imh0dHA6Ly93d3cudzMub3JnLzIwMDAvc3ZnIiBoZWlnaHQ9IjIwMCIgd2lkdGg9IjIwMCIgdmVyc2lvbj0iMS4xIiB2aWV3Qm94PSIwIDAgMTAyNCAxMDI0IiBjbGFzcz0iaWNvbiI+PGRlZnM+PHN0eWxlIHR5cGU9InRleHQvY3NzIj5AZm9udC1mYWNlIHsgZm9udC1mYW1pbHk6IGZlZWRiYWNrLWljb25mb250OyBzcmM6IHVybCgiLy9hdC5hbGljZG4uY29tL3QvZm9udF8xMDMxMTU4X3U2OXc4eWh4ZHUud29mZjI/dD0xNjMwMDMzNzU5OTQ0IikgZm9ybWF0KCJ3b2ZmMiIpLCB1cmwoIi8vYXQuYWxpY2RuLmNvbS90L2ZvbnRfMTAzMTE1OF91Njl3OHloeGR1LndvZmY/dD0xNjMwMDMzNzU5OTQ0IikgZm9ybWF0KCJ3b2ZmIiksIHVybCgiLy9hdC5hbGljZG4uY29tL3QvZm9udF8xMDMxMTU4X3U2OXc4eWh4ZHUudHRmP3Q9MTYzMDAzMzc1OTk0NCIpIGZvcm1hdCgidHJ1ZXR5cGUiKTsgfSYjeGE7PC9zdHlsZT48L2RlZnM+PHBhdGggZmlsbD0iIzRBOTE5QiIgZD0iTTg0Mi4zOTQ1OTUgNzk5LjczMzIzNyA2NDAuOTczMDc2IDc5OS43MzMyMzcgNjQwLjk3MzA3NiA5MTQuODI1NTA4bDU3LjU0OTAwNSAwYzE1LjkwMzg1MyAwIDI4Ljc3NDUwMyAxMi44NjkwOTkgMjguNzc0NTAzIDI4Ljc3MzMyNCAwIDE1LjkwMzIwMi0xMi44NzA2NDkgMjguNzcyMy0yOC43NzQ1MDMgMjguNzcyM0wzNTMuMjI4MDUgOTcyLjM3MTEzMmMtMTUuOTA0ODc3IDAtMjguNzc0NTAzLTEyLjg2OTA5OS0yOC43NzQ1MDMtMjguNzcyMyAwLTE1LjkwNDIyNSAxMi44Njk2MjYtMjguNzczMzI0IDI4Ljc3NDUwMy0yOC43NzMzMjRsNTcuNTQ5MDA1IDBMNDEwLjc3NzA1NSA3OTkuNzMzMjM3IDE4MC41ODEwMzQgNzk5LjczMzIzN2MtNjMuNTYyMTk5IDAtMTE1LjA5ODAxMS01MS41MzM3LTExNS4wOTgwMTEtMTE1LjA5MzI5NUw2NS40ODMwMjMgMTY2LjcyMDExNmMwLTYzLjU1OTU5NSA1MS41MzU4MTItMTE1LjA5MzI5NSAxMTUuMDk4MDExLTExNS4wOTMyOTVsNjYxLjgxMjUzNyAwYzYzLjU2MTE3NiAwIDExNS4wOTgwMTEgNTEuNTMzNyAxMTUuMDk4MDExIDExNS4wOTMyOTVsMCA1MTcuOTE5ODI2Qzk1Ny40OTE1ODIgNzQ4LjE5ODUxMyA5MDUuOTU1NzcgNzk5LjczMzIzNyA4NDIuMzk0NTk1IDc5OS43MzMyMzd6TTU4My40MjQwNzEgOTE0LjgyNTUwOCA1ODMuNDI0MDcxIDc5OS43MzMyMzcgNDY4LjMyNjA2IDc5OS43MzMyMzcgNDY4LjMyNjA2IDkxNC44MjU1MDggNTgzLjQyNDA3MSA5MTQuODI1NTA4ek04OTkuOTQyNTc3IDE2Ni43MjAxMTZjMC0zMS43Nzk3OTctMjUuNzY3OTA2LTU3LjU0NjY0Ny01Ny41NDc5ODItNTcuNTQ2NjQ3TDE4MC41ODEwMzQgMTA5LjE3MzQ2OGMtMzEuNzgxMDk5IDAtNTcuNTQ5MDA1IDI1Ljc2Njg1LTU3LjU0OTAwNSA1Ny41NDY2NDdsMCA0MDIuODI2NTMyTDg5OS45NDI1NzcgNTY5LjU0NjY0NyA4OTkuOTQyNTc3IDE2Ni43MjAxMTZ6TTg5OS45NDI1NzcgNjI3LjA5MzI5NSAxMjMuMDMzMDUyIDYyNy4wOTMyOTVsMCA1Ny41NDY2NDdjMCAzMS43Nzk3OTcgMjUuNzY3OTA2IDU3LjU0NTYyNCA1Ny41NDkwMDUgNTcuNTQ1NjI0bDY2MS44MTI1MzcgMGMzMS43ODEwOTkgMCA1Ny41NDc5ODItMjUuNzY2ODUgNTcuNTQ3OTgyLTU3LjU0NTYyNEw4OTkuOTQyNTc3IDYyNy4wOTMyOTV6Ii8+PC9zdmc+" vertex="1" parent="1">
          <mxGeometry x="32" y="300" width="116" height="116" as="geometry" />
        </mxCell>
        <mxCell id="ENhLnf7OnKlgd_8MKIwy-2" value="" style="shape=image;verticalLabelPosition=bottom;verticalAlign=top;imageAspect=0;aspect=fixed;image=data:image/svg+xml,PHN2ZyB4bWxuczp4bGluaz0iaHR0cDovL3d3dy53My5vcmcvMTk5OS94bGluayIgeG1sbnM9Imh0dHA6Ly93d3cudzMub3JnLzIwMDAvc3ZnIiBoZWlnaHQ9IjIwMCIgd2lkdGg9IjIwMCIgdmVyc2lvbj0iMS4xIiB2aWV3Qm94PSIwIDAgMTAyNCAxMDI0IiBjbGFzcz0iaWNvbiI+PGRlZnM+PHN0eWxlIHR5cGU9InRleHQvY3NzIj5AZm9udC1mYWNlIHsgZm9udC1mYW1pbHk6IGZlZWRiYWNrLWljb25mb250OyBzcmM6IHVybCgiLy9hdC5hbGljZG4uY29tL3QvZm9udF8xMDMxMTU4X3U2OXc4eWh4ZHUud29mZjI/dD0xNjMwMDMzNzU5OTQ0IikgZm9ybWF0KCJ3b2ZmMiIpLCB1cmwoIi8vYXQuYWxpY2RuLmNvbS90L2ZvbnRfMTAzMTE1OF91Njl3OHloeGR1LndvZmY/dD0xNjMwMDMzNzU5OTQ0IikgZm9ybWF0KCJ3b2ZmIiksIHVybCgiLy9hdC5hbGljZG4uY29tL3QvZm9udF8xMDMxMTU4X3U2OXc4eWh4ZHUudHRmP3Q9MTYzMDAzMzc1OTk0NCIpIGZvcm1hdCgidHJ1ZXR5cGUiKTsgfSYjeGE7PC9zdHlsZT48L2RlZnM+PHBhdGggZmlsbD0iIzRBOTE5QiIgZD0iTTAgNzI4djEzNmMwIDM1LjMgMjguNyA2NCA2NCA2NGg4OTZjMzUuMyAwIDY0LTI4LjcgNjQtNjRWNzI4YzAtNC40LTMuNi04LTgtOEg4Yy00LjQgMC04IDMuNi04IDh6IG03NzQgOTZjMCA0LjQtMy42IDgtOCA4SDQyNGMtNC40IDAtOC0zLjYtOC04di00OGMwLTQuNCAzLjYtOCA4LThoMzQyYzQuNCAwIDggMy42IDggOHY0OHogbTEyMiAwYzAgNC40LTMuNiA4LTggOGgtNDhjLTQuNCAwLTgtMy42LTgtOHYtNDhjMC00LjQgMy42LTggOC04aDQ4YzQuNCAwIDggMy42IDggOHY0OHpNMCA1MzZ2MTQ0YzAgNC40IDMuNiA4IDggOGgxMDA4YzQuNCAwIDgtMy42IDgtOFY1MzZjMC00LjQtMy42LTgtOC04SDhjLTQuNCAwLTggMy42LTggOHogbTc3NCA5NmMwIDQuNC0zLjYgOC04IDhINDI0Yy00LjQgMC04LTMuNi04LTh2LTQ4YzAtNC40IDMuNi04IDgtOGgzNDJjNC40IDAgOCAzLjYgOCA4djQ4eiBtMTIyIDBjMCA0LjQtMy42IDgtOCA4aC00OGMtNC40IDAtOC0zLjYtOC04di00OGMwLTQuNCAzLjYtOCA4LThoNDhjNC40IDAgOCAzLjYgOCA4djQ4ek0wIDM0NHYxNDRjMCA0LjQgMy42IDggOCA4aDEwMDhjNC40IDAgOC0zLjYgOC04VjM0NGMwLTQuNC0zLjYtOC04LThIOGMtNC40IDAtOCAzLjYtOCA4eiBtNzc0IDk2YzAgNC40LTMuNiA4LTggOEg0MjRjLTQuNCAwLTgtMy42LTgtOHYtNDhjMC00LjQgMy42LTggOC04aDM0MmM0LjQgMCA4IDMuNiA4IDh2NDh6IG0xMjIgMGMwIDQuNC0zLjYgOC04IDhoLTQ4Yy00LjQgMC04LTMuNi04LTh2LTQ4YzAtNC40IDMuNi04IDgtOGg0OGM0LjQgMCA4IDMuNiA4IDh2NDh6TTk2MCA5Nkg2NGMtMzUuMyAwLTY0IDI4LjctNjQgNjR2MTM2YzAgNC40IDMuNiA4IDggOGgxMDA4YzQuNCAwIDgtMy42IDgtOFYxNjBjMC0zNS4zLTI4LjctNjQtNjQtNjR6TTc3NCAyNDhjMCA0LjQtMy42IDgtOCA4SDQyNGMtNC40IDAtOC0zLjYtOC04di00OGMwLTQuNCAzLjYtOCA4LThoMzQyYzQuNCAwIDggMy42IDggOHY0OHogbTEyMiAwYzAgNC40LTMuNiA4LTggOGgtNDhjLTQuNCAwLTgtMy42LTgtOHYtNDhjMC00LjQgMy42LTggOC04aDQ4YzQuNCAwIDggMy42IDggOHY0OHoiLz48L3N2Zz4=" vertex="1" parent="1">
          <mxGeometry x="606" y="308" width="113" height="113" as="geometry" />
        </mxCell>
        <mxCell id="ENhLnf7OnKlgd_8MKIwy-3" value="&lt;font color=&quot;#4d4d4d&quot; style=&quot;font-size: 20px;&quot;&gt;KCP&lt;/font&gt;" style="text;html=1;strokeColor=none;fillColor=#FDD276;align=center;verticalAlign=middle;whiteSpace=wrap;rounded=1;" vertex="1" parent="1">
          <mxGeometry x="148" y="323" width="57" height="81" as="geometry" />
        </mxCell>
        <mxCell id="ENhLnf7OnKlgd_8MKIwy-4" value="&lt;font color=&quot;#4d4d4d&quot; style=&quot;font-size: 20px;&quot;&gt;KCP&lt;/font&gt;" style="text;html=1;strokeColor=none;fillColor=#FDD276;align=center;verticalAlign=middle;whiteSpace=wrap;rounded=1;" vertex="1" parent="1">
          <mxGeometry x="539" y="323" width="57" height="81" as="geometry" />
        </mxCell>
      </root>
    </mxGraphModel>
  </diagram>
</mxfile>
